<svg width="2079" height="697" viewBox="0 0 2079 697" fill="none" xmlns="http://www.w3.org/2000/svg">
<path d="M446 264.501L537.5 163.501C361.5 -36.5 0 53.5003 0 380.501C0 495.001 82.5 697.001 300.5 697.001C485.3 697.001 568 564.001 584.5 477.001V341.001H300.5V449.001H442.5C442.5 616.001 152 618.501 152 380.501C152 207.501 333 105.501 446 264.501Z" fill="#123062"/>
<path d="M563.5 187L545.5 66L972.5 0L991.5 121L847.5 144L922.5 630L783.5 652L708.5 165L563.5 187Z" fill="#123062"/>
<path d="M1937.5 534L1971.5 661C1719 764.5 1460 546.194 1497 309C1515 106.5 1842 -77.5 2078.5 148.5L1996 253C1882.5 138 1659.5 169 1645.5 361.5C1641.5 456 1751 598 1937.5 534Z" fill="#123062"/>
<path fill-rule="evenodd" clip-rule="evenodd" d="M1051.5 8L1027.5 623L1167.5 628L1176.5 386L1355.5 636L1533.5 642L1332.5 380C1534 312 1500.5 28 1287.5 17.5L1051.5 8ZM1186.5 125L1180.5 286C1269.5 290.5 1312.9 283.4 1316.5 207C1320.1 130.6 1251.5 125 1186.5 125Z" fill="#123062"/>
</svg>
